<svg xmlns="http://www.w3.org/2000/svg" width="206.481" height="206.481" viewBox="0 0 206.481 206.481">
  <g id="Group_23" data-name="Group 23" transform="translate(-397.671 -611.061)">
    <path id="Path_103" data-name="Path 103" d="M171.906,431.172h0A103.241,103.241,0,1,1,275.146,327.932,103.239,103.239,0,0,1,171.906,431.172" transform="translate(329.006 386.37)" fill="#003f32"/>
    <path id="Path_107" data-name="Path 107" d="M158.2,309.188c-5.133,5.072-15.33,3.883-21.688.944-7.635-3.537-7.285-8.466-13.606-9.909-7.139-1.629-9.715,4.169-18.918,3.822-5.363-.2-13.466-2.509-16.24-8.168-4.515-9.213,7.485-22.438,10.326-25.568,4.172-4.6,19.309-21.281,36.991-16.6,16.569,4.389,21.715,23.915,24.105,32.986,1.823,6.918,4.5,17.082-.971,22.489" transform="translate(372.287 453.901)" fill="#fff"/>
    <path id="Path_108" data-name="Path 108" d="M125.921,272.158c-4.145,2.563-12.791,6.212-15.978,2.913-3.286-3.4.771-12.6,5.248-17.751,3.931-4.518,10.625-8.7,15.133-7.071a8.807,8.807,0,0,1,5.754,6.626c1.039,4.837-4.172,11.586-10.157,15.283" transform="translate(424.986 446.709)" fill="#fff"/>
    <path id="Path_109" data-name="Path 109" d="M94.194,259.694c.424,6.273,3.092,18.09,8.948,18.952,6.039.893,12.648-10.276,14.682-18.837,1.789-7.519,1.151-17.689-3.948-21.193a11.373,11.373,0,0,0-11.274-1.059c-5.856,2.543-9.023,13.079-8.408,22.136" transform="translate(389.958 414.782)" fill="#fff"/>
    <path id="Path_110" data-name="Path 110" d="M88.236,265.008c2.56,4.148,8.656,11.284,12.984,9.76,4.461-1.572,4.956-11.616,3.255-18.219-1.494-5.8-5.6-12.543-10.364-13.1a10.075,10.075,0,0,0-4.566.618A10.185,10.185,0,0,0,86,246.8c-3.092,3.86-1.456,12.227,2.237,18.212" transform="translate(366.621 431.153)" fill="#fff"/>
    <path id="Path_111" data-name="Path 111" d="M104.863,257.538c-1.531,6.1-2.627,18.161,2.675,20.789,5.472,2.705,15.2-5.883,19.77-13.4,4.016-6.606,6.541-16.474,2.767-21.379a11.366,11.366,0,0,0-10.4-4.481c-6.355.618-12.614,9.668-14.814,18.474" transform="translate(412.669 420.669)" fill="#fff"/>
  </g>
</svg>
