<svg xmlns="http://www.w3.org/2000/svg" width="206.481" height="206.481" viewBox="0 0 206.481 206.481">
  <g id="Group_22" data-name="Group 22" transform="translate(-630.76 -607.642)">
    <path id="Path_112" data-name="Path 112" d="M240.57,430.165h0A103.241,103.241,0,1,1,343.81,326.925,103.239,103.239,0,0,1,240.57,430.165" transform="translate(493.431 383.958)" fill="#003f32"/>
    <path id="Path_113" data-name="Path 113" d="M213.233,267.313a21.558,21.558,0,1,1-21.556-21.556,21.556,21.556,0,0,1,21.556,21.556" transform="translate(571.948 436.815)" fill="#fff"/>
    <rect id="Rectangle_42" data-name="Rectangle 42" width="5.464" height="65.276" transform="translate(704.053 667.871) rotate(-56.428)" fill="#fff"/>
    <path id="Path_114" data-name="Path 114" d="M181.72,249.89a13.3,13.3,0,1,1-13.3-13.3,13.3,13.3,0,0,1,13.3,13.3" transform="translate(536.05 414.871)" fill="#fff"/>
    <path id="Path_115" data-name="Path 115" d="M185.931,277.538a13.3,13.3,0,1,1-13.3-13.3,13.3,13.3,0,0,1,13.3,13.3" transform="translate(546.132 481.077)" fill="#fff"/>
    <rect id="Rectangle_43" data-name="Rectangle 43" width="65.277" height="5.465" transform="matrix(0.68, -0.734, 0.734, 0.68, 720.118, 753.151)" fill="#fff"/>
  </g>
</svg>
