<svg xmlns="http://www.w3.org/2000/svg" width="206.481" height="206.481" viewBox="0 0 206.481 206.481">
  <g id="Group_21" data-name="Group 21" transform="translate(-866.849 -603.077)">
    <path id="Path_116" data-name="Path 116" d="M310.118,428.82h0A103.241,103.241,0,1,1,413.358,325.58,103.239,103.239,0,0,1,310.118,428.82" transform="translate(659.972 380.738)" fill="#003f32"/>
    <path id="Path_117" data-name="Path 117" d="M259.031,242.655h-21.7a3.247,3.247,0,0,0-2.811,1.623l-10.846,18.789a3.242,3.242,0,0,0,0,3.245L234.525,285.1a3.247,3.247,0,0,0,2.811,1.623h21.7a3.239,3.239,0,0,0,2.811-1.623l10.849-18.789a3.241,3.241,0,0,0,0-3.245l-10.849-18.789a3.239,3.239,0,0,0-2.811-1.623" transform="translate(699.164 429.387)" fill="#fff"/>
    <path id="Path_118" data-name="Path 118" d="M272.43,234.919H250.735a3.247,3.247,0,0,0-2.811,1.623l-10.846,18.789a3.242,3.242,0,0,0,0,3.245l10.846,18.789a3.247,3.247,0,0,0,2.811,1.623H272.43a3.239,3.239,0,0,0,2.811-1.623l10.849-18.789a3.241,3.241,0,0,0,0-3.245L275.24,236.542a3.239,3.239,0,0,0-2.811-1.623" transform="translate(731.25 410.862)" fill="#fff"/>
    <path id="Path_119" data-name="Path 119" d="M272.43,250.391H250.735a3.247,3.247,0,0,0-2.811,1.623L237.078,270.8a3.242,3.242,0,0,0,0,3.245l10.846,18.789a3.247,3.247,0,0,0,2.811,1.623H272.43a3.239,3.239,0,0,0,2.811-1.623l10.849-18.789a3.241,3.241,0,0,0,0-3.245L275.24,252.014a3.239,3.239,0,0,0-2.811-1.623" transform="translate(731.25 447.912)" fill="#fff"/>
    <path id="Path_120" data-name="Path 120" d="M259.031,257.6h-21.7a3.247,3.247,0,0,0-2.811,1.623l-10.846,18.789a3.242,3.242,0,0,0,0,3.245l10.846,18.789a3.247,3.247,0,0,0,2.811,1.623h21.7a3.239,3.239,0,0,0,2.811-1.623l10.849-18.789a3.242,3.242,0,0,0,0-3.245l-10.849-18.789a3.239,3.239,0,0,0-2.811-1.623" transform="translate(699.164 465.179)" fill="#fff"/>
  </g>
</svg>
