<svg xmlns="http://www.w3.org/2000/svg" width="206.481" height="206.481" viewBox="0 0 206.481 206.481">
  <g id="Group_20" data-name="Group 20" transform="translate(-1097.058 -610.009)">
    <path id="Path_121" data-name="Path 121" d="M377.934,430.862h0A103.241,103.241,0,1,1,481.174,327.622,103.239,103.239,0,0,1,377.934,430.862" transform="translate(822.365 385.628)" fill="#003f32"/>
    <path id="Path_122" data-name="Path 122" d="M369.91,281.875A37.674,37.674,0,1,1,332.233,244.2a37.678,37.678,0,0,1,37.677,37.674" transform="translate(869.947 433.091)" fill="#fff"/>
    <rect id="Rectangle_44" data-name="Rectangle 44" width="10.517" height="24.322" transform="translate(1159.877 677.006) rotate(-41.257)" fill="#fff"/>
    <path id="Path_123" data-name="Path 123" d="M313.978,253.6a12.752,12.752,0,1,1-8.969-15.646,12.754,12.754,0,0,1,8.969,15.646" transform="translate(856.424 417.048)" fill="#fff"/>
    <rect id="Rectangle_45" data-name="Rectangle 45" width="4.919" height="24.322" transform="translate(1198.883 665.85)" fill="#fff"/>
    <path id="Path_124" data-name="Path 124" d="M315.276,251.081a7.462,7.462,0,1,1,1.276-10.476,7.464,7.464,0,0,1-1.276,10.476" transform="translate(890.666 417.624)" fill="#fff"/>
    <path id="Path_125" data-name="Path 125" d="M339.318,259.565A14.24,14.24,0,1,1,329.3,242.092a14.239,14.239,0,0,1,10.014,17.472" transform="translate(910.102 426.843)" fill="#fff"/>
    <rect id="Rectangle_46" data-name="Rectangle 46" width="5.799" height="28.672" transform="matrix(0.891, -0.453, 0.453, 0.891, 1209.396, 738.334)" fill="#fff"/>
    <path id="Path_126" data-name="Path 126" d="M311.726,273.675a8.3,8.3,0,1,1,4.012,11.029,8.3,8.3,0,0,1-4.012-11.029" transform="translate(909.176 492.191)" fill="#fff"/>
    <path id="Path_127" data-name="Path 127" d="M338.449,271.935a11.347,11.347,0,1,1-6.3-14.76,11.347,11.347,0,0,1,6.3,14.76" transform="translate(922.648 462.192)" fill="#fff"/>
    <rect id="Rectangle_47" data-name="Rectangle 47" width="8.552" height="28.67" transform="translate(1215.729 729.524) rotate(-83.276)" fill="#fff"/>
    <path id="Path_128" data-name="Path 128" d="M315.782,279.582a12.561,12.561,0,1,1-8.833-15.412,12.562,12.562,0,0,1,8.833,15.412" transform="translate(861.645 479.851)" fill="#fff"/>
    <rect id="Rectangle_48" data-name="Rectangle 48" width="28.673" height="6.912" transform="translate(1167.227 748.642) rotate(-49.143)" fill="#fff"/>
    <path id="Path_129" data-name="Path 129" d="M311.695,262.611a10.611,10.611,0,1,1-10.785-10.435,10.614,10.614,0,0,1,10.785,10.435" transform="translate(860.154 452.183)" fill="#fff"/>
  </g>
</svg>
