<svg xmlns="http://www.w3.org/2000/svg" width="206.481" height="206.481" viewBox="0 0 206.481 206.481">
  <g id="Group_19" data-name="Group 19" transform="translate(-1330.303 -611.061)">
    <path id="Path_131" data-name="Path 131" d="M446.644,431.172h0A103.241,103.241,0,1,1,549.884,327.932,103.239,103.239,0,0,1,446.644,431.172" transform="translate(986.9 386.37)" fill="#003f32"/>
    <path id="Path_132" data-name="Path 132" d="M435.518,335.956c-5.459,11.416-18.345,23.966-34.741,23.976-16.257.007-29.292-12.319-34.737-23.976-9.515-20.361,1.976-43.264,12.974-65.19A170.533,170.533,0,0,1,401.337,237a163.144,163.144,0,0,1,21.308,32.028c10.7,21.159,23.07,45.6,12.872,66.932" transform="translate(1032.631 415.836)" fill="#fff"/>
  </g>
</svg>
