<svg xmlns="http://www.w3.org/2000/svg" xmlns:xlink="http://www.w3.org/1999/xlink" width="206.481" height="206.481" viewBox="0 0 206.481 206.481">
  <defs>
    <clipPath id="clip-path">
      <rect width="206.481" height="206.481" fill="none"/>
    </clipPath>
  </defs>
  <g id="Group_24" data-name="Group 24" transform="translate(-164.58 -611.061)">
    <g id="Repeat_Grid_6" data-name="Repeat Grid 6" transform="translate(164.58 611.061)" clip-path="url(#clip-path)">
      <g transform="translate(0 -762.741)">
        <path id="Path_102" data-name="Path 102" d="M103.241,431.172h0A103.241,103.241,0,1,1,206.481,327.932,103.239,103.239,0,0,1,103.241,431.172" transform="translate(0 538.05)" fill="#003f32"/>
      </g>
    </g>
    <path id="Path_104" data-name="Path 104" d="M35.206,313.984h-6.64a288.5,288.5,0,0,0,.971-31.831c-.251-10.153-1.022-19.563-2.074-28.118a2.779,2.779,0,0,1,1.942-2.427,2.928,2.928,0,0,1,2.648.642c1.192,8.083,2.132,16.569,2.733,25.432q.224,3.3.377,6.548a101.613,101.613,0,0,1,13.8-12.876c2.441-1.884,4.837-3.554,7.149-5.038q1.487,1.767,2.98,3.537a65.2,65.2,0,0,0-10.2,7.55,72.067,72.067,0,0,0-7.828,8.395,90.007,90.007,0,0,0-5.618,7.675q-.117,10.255-.238,20.51" transform="translate(230.343 450.572)" fill="#fff"/>
    <path id="Path_105" data-name="Path 105" d="M61.221,273.037c-1.086.811-13.31,9.739-21.451,4.922a8.937,8.937,0,0,1-4.057-4.715c-2.268-7.064,7.4-15.873,13.219-19.594,9.77-6.246,20.313-5.574,24.981-4.953-.363,3.561-2.118,16.427-12.692,24.339" transform="translate(249.29 442.935)" fill="#fff"/>
    <path id="Path_106" data-name="Path 106" d="M54.906,259.019c.72,1.656,8.51,20.269-1.667,29.934a15.06,15.06,0,0,1-8.375,4.237c-11.005,1.239-19.668-13.918-22.622-22.646-4.956-14.651.275-28.583,3.055-34.666,4.939,1.388,22.595,6.993,29.608,23.141" transform="translate(212.932 413.158)" fill="#fff"/>
    <path id="Path_130" data-name="Path 130" d="M41.22,275.889a7.244,7.244,0,1,1-7.244-7.244,7.244,7.244,0,0,1,7.244,7.244" transform="translate(228.593 491.623)" fill="#fff"/>
  </g>
</svg>
